<mxfile host="app.diagrams.net" agent="Mozilla/5.0 (Windows NT 10.0; Win64; x64) AppleWebKit/537.36 (KHTML, like Gecko) Chrome/131.0.0.0 Safari/537.36" version="25.0.3">
  <diagram name="หน้า-1" id="Mu-dsonxsl8irQ8x9AEi">
    <mxGraphModel dx="1034" dy="446" grid="1" gridSize="10" guides="1" tooltips="1" connect="1" arrows="1" fold="1" page="1" pageScale="1" pageWidth="827" pageHeight="1169" math="0" shadow="0">
      <root>
        <mxCell id="0" />
        <mxCell id="1" parent="0" />
        <mxCell id="5EgjOIwZxlkpGG8NyGlF-5" value="" style="edgeStyle=orthogonalEdgeStyle;rounded=0;orthogonalLoop=1;jettySize=auto;html=1;" edge="1" parent="1" source="5EgjOIwZxlkpGG8NyGlF-1" target="5EgjOIwZxlkpGG8NyGlF-4">
          <mxGeometry relative="1" as="geometry" />
        </mxCell>
        <mxCell id="5EgjOIwZxlkpGG8NyGlF-1" value="start" style="strokeWidth=2;html=1;shape=mxgraph.flowchart.start_1;whiteSpace=wrap;" vertex="1" parent="1">
          <mxGeometry x="360" y="100" width="100" height="60" as="geometry" />
        </mxCell>
        <mxCell id="5EgjOIwZxlkpGG8NyGlF-7" value="" style="edgeStyle=orthogonalEdgeStyle;rounded=0;orthogonalLoop=1;jettySize=auto;html=1;" edge="1" parent="1" source="5EgjOIwZxlkpGG8NyGlF-4" target="5EgjOIwZxlkpGG8NyGlF-6">
          <mxGeometry relative="1" as="geometry" />
        </mxCell>
        <mxCell id="5EgjOIwZxlkpGG8NyGlF-4" value="กำหนดตัวแปร number" style="whiteSpace=wrap;html=1;strokeWidth=2;" vertex="1" parent="1">
          <mxGeometry x="350" y="240" width="120" height="60" as="geometry" />
        </mxCell>
        <mxCell id="5EgjOIwZxlkpGG8NyGlF-9" value="" style="edgeStyle=orthogonalEdgeStyle;rounded=0;orthogonalLoop=1;jettySize=auto;html=1;" edge="1" parent="1" source="5EgjOIwZxlkpGG8NyGlF-6" target="5EgjOIwZxlkpGG8NyGlF-8">
          <mxGeometry relative="1" as="geometry" />
        </mxCell>
        <mxCell id="5EgjOIwZxlkpGG8NyGlF-6" value="รับค่าจากผู้ใช้" style="shape=parallelogram;perimeter=parallelogramPerimeter;whiteSpace=wrap;html=1;fixedSize=1;strokeWidth=2;" vertex="1" parent="1">
          <mxGeometry x="350" y="380" width="120" height="60" as="geometry" />
        </mxCell>
        <mxCell id="5EgjOIwZxlkpGG8NyGlF-13" value="" style="edgeStyle=orthogonalEdgeStyle;rounded=0;orthogonalLoop=1;jettySize=auto;html=1;" edge="1" parent="1" source="5EgjOIwZxlkpGG8NyGlF-8" target="5EgjOIwZxlkpGG8NyGlF-12">
          <mxGeometry relative="1" as="geometry" />
        </mxCell>
        <mxCell id="5EgjOIwZxlkpGG8NyGlF-8" value="i &amp;lt;= number ?" style="rhombus;whiteSpace=wrap;html=1;strokeWidth=2;" vertex="1" parent="1">
          <mxGeometry x="350" y="510" width="120" height="90" as="geometry" />
        </mxCell>
        <mxCell id="5EgjOIwZxlkpGG8NyGlF-10" value="end" style="strokeWidth=2;html=1;shape=mxgraph.flowchart.start_1;whiteSpace=wrap;" vertex="1" parent="1">
          <mxGeometry x="350" y="1260" width="100" height="60" as="geometry" />
        </mxCell>
        <mxCell id="5EgjOIwZxlkpGG8NyGlF-11" style="edgeStyle=orthogonalEdgeStyle;rounded=0;orthogonalLoop=1;jettySize=auto;html=1;exitX=0;exitY=0.5;exitDx=0;exitDy=0;entryX=0.5;entryY=0;entryDx=0;entryDy=0;entryPerimeter=0;" edge="1" parent="1" source="5EgjOIwZxlkpGG8NyGlF-8" target="5EgjOIwZxlkpGG8NyGlF-10">
          <mxGeometry relative="1" as="geometry">
            <Array as="points">
              <mxPoint x="80" y="555" />
              <mxPoint x="80" y="1210" />
              <mxPoint x="400" y="1210" />
            </Array>
          </mxGeometry>
        </mxCell>
        <mxCell id="5EgjOIwZxlkpGG8NyGlF-15" value="" style="edgeStyle=orthogonalEdgeStyle;rounded=0;orthogonalLoop=1;jettySize=auto;html=1;" edge="1" parent="1" source="5EgjOIwZxlkpGG8NyGlF-12" target="5EgjOIwZxlkpGG8NyGlF-14">
          <mxGeometry relative="1" as="geometry" />
        </mxCell>
        <mxCell id="5EgjOIwZxlkpGG8NyGlF-17" style="edgeStyle=orthogonalEdgeStyle;rounded=0;orthogonalLoop=1;jettySize=auto;html=1;exitX=1;exitY=0.5;exitDx=0;exitDy=0;entryX=0.5;entryY=0;entryDx=0;entryDy=0;" edge="1" parent="1" source="5EgjOIwZxlkpGG8NyGlF-12" target="5EgjOIwZxlkpGG8NyGlF-16">
          <mxGeometry relative="1" as="geometry" />
        </mxCell>
        <mxCell id="5EgjOIwZxlkpGG8NyGlF-12" value="number % 2 = 0 ?" style="rhombus;whiteSpace=wrap;html=1;strokeWidth=2;" vertex="1" parent="1">
          <mxGeometry x="350" y="680" width="120" height="90" as="geometry" />
        </mxCell>
        <mxCell id="5EgjOIwZxlkpGG8NyGlF-19" value="" style="edgeStyle=orthogonalEdgeStyle;rounded=0;orthogonalLoop=1;jettySize=auto;html=1;" edge="1" parent="1" source="5EgjOIwZxlkpGG8NyGlF-14" target="5EgjOIwZxlkpGG8NyGlF-18">
          <mxGeometry relative="1" as="geometry">
            <Array as="points">
              <mxPoint x="230" y="1030" />
              <mxPoint x="414" y="1030" />
            </Array>
          </mxGeometry>
        </mxCell>
        <mxCell id="5EgjOIwZxlkpGG8NyGlF-14" value="แสดงคำว่า ( ) Hello World" style="shape=parallelogram;perimeter=parallelogramPerimeter;whiteSpace=wrap;html=1;fixedSize=1;strokeWidth=2;" vertex="1" parent="1">
          <mxGeometry x="140" y="910" width="180" height="60" as="geometry" />
        </mxCell>
        <mxCell id="5EgjOIwZxlkpGG8NyGlF-21" style="edgeStyle=orthogonalEdgeStyle;rounded=0;orthogonalLoop=1;jettySize=auto;html=1;exitX=0.5;exitY=1;exitDx=0;exitDy=0;" edge="1" parent="1" source="5EgjOIwZxlkpGG8NyGlF-16" target="5EgjOIwZxlkpGG8NyGlF-20">
          <mxGeometry relative="1" as="geometry">
            <Array as="points">
              <mxPoint x="590" y="1030" />
            </Array>
          </mxGeometry>
        </mxCell>
        <mxCell id="5EgjOIwZxlkpGG8NyGlF-16" value="แสดงคำว่า [ ] Hello World" style="shape=parallelogram;perimeter=parallelogramPerimeter;whiteSpace=wrap;html=1;fixedSize=1;strokeWidth=2;" vertex="1" parent="1">
          <mxGeometry x="500" y="910" width="180" height="60" as="geometry" />
        </mxCell>
        <mxCell id="5EgjOIwZxlkpGG8NyGlF-22" style="edgeStyle=orthogonalEdgeStyle;rounded=0;orthogonalLoop=1;jettySize=auto;html=1;exitX=0.5;exitY=1;exitDx=0;exitDy=0;entryX=1.05;entryY=0.4;entryDx=0;entryDy=0;entryPerimeter=0;" edge="1" parent="1" source="5EgjOIwZxlkpGG8NyGlF-18" target="5EgjOIwZxlkpGG8NyGlF-23">
          <mxGeometry relative="1" as="geometry">
            <mxPoint x="730" y="650" as="targetPoint" />
            <Array as="points">
              <mxPoint x="414" y="1180" />
              <mxPoint x="730" y="1180" />
              <mxPoint x="730" y="470" />
            </Array>
          </mxGeometry>
        </mxCell>
        <mxCell id="5EgjOIwZxlkpGG8NyGlF-18" value="i ++" style="whiteSpace=wrap;html=1;strokeWidth=2;" vertex="1" parent="1">
          <mxGeometry x="354" y="1070" width="120" height="60" as="geometry" />
        </mxCell>
        <mxCell id="5EgjOIwZxlkpGG8NyGlF-20" value="" style="shape=waypoint;sketch=0;fillStyle=solid;size=6;pointerEvents=1;points=[];fillColor=none;resizable=0;rotatable=0;perimeter=centerPerimeter;snapToPoint=1;" vertex="1" parent="1">
          <mxGeometry x="404" y="1020" width="20" height="20" as="geometry" />
        </mxCell>
        <mxCell id="5EgjOIwZxlkpGG8NyGlF-23" value="" style="shape=waypoint;sketch=0;fillStyle=solid;size=6;pointerEvents=1;points=[];fillColor=none;resizable=0;rotatable=0;perimeter=centerPerimeter;snapToPoint=1;" vertex="1" parent="1">
          <mxGeometry x="400" y="460" width="20" height="20" as="geometry" />
        </mxCell>
        <mxCell id="5EgjOIwZxlkpGG8NyGlF-24" value="F" style="text;html=1;align=center;verticalAlign=middle;whiteSpace=wrap;rounded=0;" vertex="1" parent="1">
          <mxGeometry x="290" y="510" width="60" height="30" as="geometry" />
        </mxCell>
        <mxCell id="5EgjOIwZxlkpGG8NyGlF-25" value="T" style="text;html=1;align=center;verticalAlign=middle;whiteSpace=wrap;rounded=0;" vertex="1" parent="1">
          <mxGeometry x="414" y="600" width="60" height="30" as="geometry" />
        </mxCell>
        <mxCell id="5EgjOIwZxlkpGG8NyGlF-26" value="T" style="text;html=1;align=center;verticalAlign=middle;whiteSpace=wrap;rounded=0;" vertex="1" parent="1">
          <mxGeometry x="290" y="690" width="60" height="30" as="geometry" />
        </mxCell>
        <mxCell id="5EgjOIwZxlkpGG8NyGlF-27" value="F" style="text;html=1;align=center;verticalAlign=middle;whiteSpace=wrap;rounded=0;" vertex="1" parent="1">
          <mxGeometry x="460" y="690" width="60" height="30" as="geometry" />
        </mxCell>
      </root>
    </mxGraphModel>
  </diagram>
</mxfile>
